PathFileType	4	(X/Y/Z)	17_1_14_p1_0-263.trc
DataRate	CameraRate	NumFrames	NumMarkers	Units	OrigDataRate	OrigDataStartFrame	OrigNumFrames
59.0	59.0	5	27	m	59.0	66	264
Frame#	Time	RHip			RKnee			RAnkle			RBigToe			RSmallToe			RHeel			LHip			LKnee			LAnkle			LBigToe			LSmallToe			LHeel			Neck			Head			Nose			RShoulder			RElbow			RWrist			RThumb			RIndex			RPinky			LShoulder			LElbow			LWrist			LThumb			LIndex			LPinky			
		X1	Y1	Z1	X2	Y2	Z2	X3	Y3	Z3	X4	Y4	Z4	X5	Y5	Z5	X6	Y6	Z6	X7	Y7	Z7	X8	Y8	Z8	X9	Y9	Z9	X10	Y10	Z10	X11	Y11	Z11	X12	Y12	Z12	X13	Y13	Z13	X14	Y14	Z14	X15	Y15	Z15	X16	Y16	Z16	X17	Y17	Z17	X18	Y18	Z18	X19	Y19	Z19	X20	Y20	Z20	X21	Y21	Z21	X22	Y22	Z22	X23	Y23	Z23	X24	Y24	Z24	X25	Y25	Z25	X26	Y26	Z26	X27	Y27	Z27	
66	1.11864406779661	0.21609426636348286	0.4888137536980206	0.8588818875240065	0.22776139300974088	0.5136945026307335	1.2656277664051376	0.21679023464688896	0.7413814770385817	1.7056916811869272	0.23026197030303017	0.49341284683615205	1.706307451204487	0.2894122170971393	0.563785955551716	1.7333640718053158	0.20425581446135227	0.7980678852446584	1.752827617646223	0.018894244452547483	0.4953139367262926	0.8541768647639238	0.03614865811652151	0.5416816132916622	1.279436199933665	0.0420940993869339	0.6591714215031297	1.697479719768919	0.08043819259741458	0.4540870695643891	1.6975513941358027	0.021471711392254674	0.516615331646303	1.7212771243899219	0.05959479945002876	0.7775365762744175	1.7769961827919982	0.1342482391640859	0.49666682828131314	0.2225356453548625	0.167436114787674	0.39016868146162276	-0.01918134149890414	0.17031568097328983	0.36247547708999506	0.12364473707649826	0.2932261694193978	0.4658062524589469	0.3208055925632841	0.49150676550216266	0.2925425765843539	0.3569214902338783	0.537768469365639	0.3402988884515658	0.16934239873113313	0.4464321555092874	0.35877280065775935	0.10488655736479233	0.46294481328238907	0.37896861739595744	0.08976123405923646	0.5092838780388939	0.34554892752466304	0.09587187815595871	-0.022961728746905136	0.4929223754458976	0.31914302330065114	-0.14384939272161015	0.5919553120920423	0.5721061166524594	-0.11863229551921244	0.3980313670338951	0.7676917127029158	-0.04859409246134893	0.31274647288289553	0.8253002213892241	-0.06065059621263722	0.27427726745683884	0.8446391592836631	-0.10976501791975947	0.39460742878354604	0.890398784650537
67	1.1355932203389831	0.215695444499458	0.4891802514521142	0.8551476101877157	0.22764021853528238	0.5136324577835979	1.265665576713642	0.2148415567542599	0.7261004148525578	1.6988715506331442	0.22849432332629546	0.4833308507458319	1.7012746675489108	0.2829630076610096	0.5499596396952477	1.7270697832518562	0.2042507198032334	0.7975830811334623	1.752547643635286	0.019086481163945672	0.4970490563744279	0.8582312188393937	0.03660683234075378	0.5404701700782248	1.2835066734607388	0.04035006339497068	0.6573063538032178	1.6966206522150407	0.0804494096027826	0.4539399792489999	1.697383724907799	0.021546805948840755	0.5166422890030153	1.721326889502119	0.06422961901747265	0.7837657101323576	1.7791512832962262	0.13441272304105945	0.49647185887305134	0.2259304996107245	0.1582910999919706	0.399385080744034	-0.01957697185529076	0.1701076782708662	0.3626483257646222	0.12054662518090241	0.2928384859818291	0.4639699453524141	0.3128004005955745	0.5021691436158026	0.2817494439794771	0.3484508433690365	0.5325423405071161	0.3388372048457303	0.15673861880498433	0.4394765416703682	0.35803647711561554	0.09801678750633944	0.4401428707143014	0.37014878980903426	0.0877733731744165	0.48165840505208785	0.37427012414100147	0.0885816927615655	-0.022906864465724937	0.49286939521681633	0.3193028796968455	-0.14492629734042017	0.5787506961790088	0.5744950656996651	-0.11933423264686091	0.39793653084145586	0.771170844415245	-0.05589789689711523	0.3067350212710826	0.8242774335699473	-0.06502187868387112	0.261818306481799	0.8456552618193005	-0.11070764077311415	0.3825953008356197	0.8877630384983033
68	1.152542372881356	0.21557505578169203	0.48935630342022696	0.8551025750713585	0.22729820503991552	0.5132853711257566	1.2740806071438648	0.2149046360530067	0.7262916335427929	1.6991898297806922	0.23029663314358864	0.4934036612547073	1.7062376063081914	0.2768927382472942	0.5645851590699852	1.7352717108653612	0.20327798183984672	0.7990155457153129	1.7578248667862046	0.01788100844218245	0.4843418372539168	0.8556977768303295	0.03600721385114925	0.5385205526217234	1.2790983892749184	0.04094428973667423	0.6598304341503843	1.7027120605346708	0.08034560645749714	0.4541656749876228	1.6973913580032916	0.020325612339999893	0.5172652533371092	1.7253400950298998	0.0595891370261437	0.7779175115854499	1.7770734847956657	0.1344982369749453	0.4964353095012717	0.2259011093320034	0.1582191899392739	0.39953880367652983	-0.019866249535055364	0.16998388971730882	0.36260584816005353	0.12028597601682832	0.28928032881889293	0.46200816019514823	0.3123030999579202	0.5094252932018735	0.28403829827422733	0.34144117268619084	0.5237809143356317	0.3506724332347396	0.14537147342231116	0.42135337335692064	0.39333463504973915	0.09336693612735025	0.4287461563350982	0.37042420376424473	0.08367356862926797	0.46384580743123904	0.39569218422820807	0.0817112558476155	-0.0228516054643376	0.49416105057604737	0.3228444840309736	-0.14376956081638173	0.5923185161185004	0.5721884947718955	-0.11918653184962312	0.39766853929757695	0.7749807871659383	-0.05918926304205767	0.30442032928796325	0.8202449263051022	-0.07123109161499971	0.2706859819703737	0.8485579260617896	-0.11092993806196123	0.3823813774092968	0.8877669202481726
69	1.1694915254237288	0.21590949874446666	0.4887703335790416	0.8589573779550413	0.2272412526818934	0.5132035961450472	1.274038129058991	0.22327237988539791	0.724393935884991	1.6972499647424337	0.2324882770892646	0.5066453226775657	1.712418651896764	0.28511856643497996	0.561905861842498	1.7327030119987263	0.2033763186566473	0.7990058600781703	1.7576905243938257	0.017321809486376995	0.4843940743948407	0.8596776180533596	0.030323538570116736	0.5542821393195111	1.2937898800646606	0.042331131442960114	0.6740877864847507	1.7092384581189661	0.08035468893737795	0.4543572788204186	1.6974295856345532	0.02238954246231484	0.5312086763128622	1.7281393870022796	0.05957653002536326	0.7778530884423636	1.7772119590732316	0.13441575048924123	0.4951786264607393	0.22225308872659572	0.1584263822055979	0.39960561947913503	-0.016446609983953486	0.16998069473700125	0.3627887159406666	0.12020268615348041	0.289016322659598	0.46078309334258716	0.304757042249896	0.5118598157864421	0.28463936949930907	0.33129469761002983	0.518768195788469	0.36271854851831886	0.13429162939853118	0.40335170976433876	0.42841262531603236	0.09552083250466221	0.40510766253203584	0.41655848707443893	0.08210243320318562	0.4455209586644815	0.3931916151722646	0.07909450884232802	-0.016498331690646784	0.4816246344753288	0.32229259230246915	-0.14340388345181665	0.5921300968662839	0.5759944272248126	-0.11961569105752744	0.39809013942666793	0.7713182761881856	-0.059516066601163056	0.3049748469669606	0.8201247989215327	-0.07150985487206317	0.2710723000874897	0.8486495422413912	-0.1107911639531299	0.3818529642980783	0.8915099671147937
70	1.1864406779661016	0.21585901581411143	0.4885122250574384	0.8589222388468746	0.22241524953740568	0.5081245109943355	1.2774845004972788	0.2232940067303747	0.7246250694118618	1.6974220846001629	0.23503433862162157	0.5207587781534138	1.7229843642563993	0.2848479479005191	0.5617764444849166	1.732878303357282	0.2056020105025636	0.8154886553389082	1.7649860999232216	0.017333888957603013	0.4842877785514926	0.8597758693404461	0.02900215625875722	0.5522266887711437	1.2935908920230499	0.042419754284071846	0.6739191419837739	1.7091780873721378	0.08032560210198472	0.4545405737550866	1.6976298447883988	0.022342492578065157	0.5313261656180848	1.7282676944361388	0.06111210111977077	0.7917425094654907	1.7834777448814163	0.13033554290137125	0.4932032908239425	0.22258038192593388	0.15417031034049936	0.39723845914016837	-0.019416609049561537	0.16982910253867364	0.3630354114449849	0.11688274285140685	0.28891404187887526	0.4605343037101591	0.30419856526645794	0.5189290585786271	0.29731354438453345	0.31756740330617494	0.503265293524447	0.3754841465147152	0.12173485393103546	0.383235061669704	0.4263404534172927	0.09530573108496551	0.37766636118979174	0.42497720229188235	0.07873464848430954	0.4249514588308511	0.4175961897203937	0.08115015647278248	-0.01744595119204675	0.4691320296550528	0.32205069610197373	-0.14326730595975842	0.5939164030817892	0.5806495157108406	-0.11950233280012511	0.3960318515722713	0.7709864965999982	-0.059765049203912096	0.3058157647541093	0.8198241670844106	-0.07157157666432716	0.2711927921347209	0.8485562777154908	-0.11086399653741091	0.3819330361638759	0.8911569813610833
